<svg width="51.429810" height="81.264984" viewBox="0 0 51.4298 81.265" fill="none" xmlns="http://www.w3.org/2000/svg" xmlns:xlink="http://www.w3.org/1999/xlink">
	<desc>
			Created with Pixso.
	</desc>
	<defs/>
	<path id="burger" d="M0.5 80.76L0.5 67.38L50.92 67.38L50.92 80.76L0.5 80.76ZM0.5 47.32L0.5 33.94L27.12 33.94L50.92 33.94L50.92 47.32L0.5 47.32ZM0.5 13.87L0.5 0.5L50.92 0.5L50.92 13.87L0.5 13.87Z" fill="#FFFFFF" fill-opacity="1.000000" fill-rule="nonzero"/>
	<path id="burger" d="M0.5 67.38L50.92 67.38L50.92 80.76L0.5 80.76L0.5 67.38ZM0.5 33.94L27.12 33.94L50.92 33.94L50.92 47.32L0.5 47.32L0.5 33.94ZM0.5 0.5L50.92 0.5L50.92 13.87L0.5 13.87L0.5 0.5Z" stroke="#000000" stroke-opacity="1.000000" stroke-width="1.000000"/>
</svg>
